<?xml version="1.0" encoding="UTF-8"?>
<svg id="Camada_1" data-name="Camada 1" xmlns="http://www.w3.org/2000/svg" viewBox="0 0 1920 1080">
  <g>
    <g>
      <path d="M830.37,307.17c28.9,0,52.91,10.26,72.01,30.77,19.1,20.52,28.65,45.63,28.65,75.34s-9.55,54.83-28.65,75.34c-19.1,20.52-43.11,30.77-72.01,30.77h-82.77v-212.23h82.77ZM830.37,492.72c21.63,0,39.31-7.58,53.06-22.74,13.74-15.16,20.62-34.06,20.62-56.7s-6.87-41.54-20.62-56.7c-13.75-15.16-31.43-22.74-53.06-22.74h-54.57v158.87h54.57Z"/>
      <path d="M1141.89,491.21c-21.33,21.43-47.35,32.14-78.07,32.14s-56.7-10.71-77.92-32.14c-21.22-21.42-31.84-47.4-31.84-77.92s10.61-56.74,31.84-78.07c21.22-21.32,47.19-31.99,77.92-31.99s56.74,10.66,78.07,31.99c21.32,21.33,31.99,47.35,31.99,78.07s-10.66,56.5-31.99,77.92ZM1005.46,471.95c15.66,15.87,35.12,23.8,58.36,23.8s42.7-7.93,58.36-23.8c15.66-15.87,23.5-35.42,23.5-58.67s-7.84-43.1-23.5-58.97c-15.67-15.87-35.12-23.8-58.36-23.8s-42.7,7.93-58.36,23.8c-15.67,15.87-23.5,35.53-23.5,58.97s7.83,42.8,23.5,58.67Z"/>
      <path d="M1340.63,502.88c-14.76,13.64-33.86,20.47-57.3,20.47s-42.6-6.82-57.45-20.47c-14.86-13.64-22.29-31.88-22.29-54.73v-140.98h28.2v139.77c0,14.96,4.44,26.83,13.34,35.63,8.89,8.79,21.63,13.19,38.2,13.19s29.3-4.4,38.2-13.19c8.89-8.79,13.34-20.66,13.34-35.63v-139.77h27.89v140.98c0,22.84-7.38,41.08-22.13,54.73Z"/>
      <path d="M1610.47,414.2v12.73c0,27.69-9.5,50.68-28.5,68.97-19,18.3-44.17,27.44-75.49,27.44s-59.07-10.66-80.2-31.99c-21.12-21.32-31.68-47.35-31.68-78.07s10.56-56.74,31.68-78.07c21.12-21.32,47.65-31.99,79.59-31.99,19.6,0,37.6,4.7,53.97,14.1,16.37,9.4,29,21.78,37.9,37.14l-24.25,14.25c-6.06-11.52-15.21-20.77-27.44-27.74-12.23-6.97-25.72-10.46-40.48-10.46-24.26,0-44.17,7.93-59.73,23.8-15.57,15.87-23.35,35.53-23.35,58.97s7.83,43.05,23.5,58.82c15.66,15.77,35.93,23.65,60.79,23.65,21.22,0,38.4-5.2,51.54-15.61,13.14-10.41,21.12-23.9,23.95-40.48h-77.92v-25.47h106.12Z"/>
    </g>
    <g>
      <path d="M830.37,625.26c28.9,0,52.91,10.26,72.01,30.77,19.1,20.52,28.65,45.63,28.65,75.34s-9.55,54.83-28.65,75.34c-19.1,20.52-43.1,30.77-72.01,30.77h-82.77v-212.23h82.77ZM830.37,810.81c21.63,0,39.31-7.58,53.06-22.74,13.74-15.16,20.62-34.06,20.62-56.7s-6.88-41.54-20.62-56.7c-13.75-15.16-31.43-22.74-53.06-22.74h-54.57v158.87h54.57Z"/>
      <path d="M993.48,810.81h98.53v26.68h-126.73v-212.23h125.21v26.68h-97.02v65.18h89.44v26.38h-89.44v67.31Z"/>
      <path d="M1194.49,841.43c-19.81,0-36.74-4.65-50.78-13.95-14.05-9.29-23.9-22.03-29.56-38.2l24.26-13.95c8.28,25.67,27.18,38.51,56.7,38.51,14.55,0,25.66-2.98,33.35-8.94,7.68-5.96,11.52-13.9,11.52-23.81s-3.84-17.69-11.52-22.74c-7.69-5.05-20.52-10.41-38.5-16.07-8.81-3.03-15.56-5.35-20.25-6.96-4.69-1.61-10.52-4.19-17.5-7.73-6.98-3.53-12.18-7.17-15.61-10.92-3.44-3.74-6.52-8.64-9.25-14.71-2.73-6.06-4.09-12.93-4.09-20.62,0-18.39,6.47-32.99,19.41-43.81,12.93-10.81,28.7-16.22,47.3-16.22,16.78,0,31.38,4.25,43.81,12.73,12.43,8.49,21.78,19.71,28.04,33.65l-23.65,13.64c-9.1-21.83-25.16-32.74-48.21-32.74-11.52,0-20.82,2.83-27.89,8.48-7.08,5.66-10.61,13.34-10.61,23.03s3.33,16.36,10,21.21c6.67,4.85,18.2,9.9,34.58,15.15,5.74,2.03,9.85,3.49,12.33,4.37,2.48.88,6.31,2.24,11.48,4.07,5.16,1.83,8.95,3.35,11.38,4.56,2.43,1.21,5.71,2.94,9.85,5.16,4.14,2.23,7.22,4.35,9.24,6.38,2.02,2.03,4.39,4.5,7.12,7.44,2.73,2.94,4.69,5.92,5.91,8.96,1.21,3.04,2.28,6.53,3.18,10.48.91,3.95,1.36,8.15,1.36,12.6,0,18.6-6.78,33.4-20.31,44.42-13.54,11.02-31.23,16.52-53.06,16.52Z"/>
      <path d="M1299.7,625.26h28.2v212.23h-28.2v-212.23Z"/>
      <path d="M1578.02,732.28v12.73c0,27.69-9.5,50.69-28.5,68.97-19,18.3-44.17,27.44-75.49,27.44s-59.08-10.66-80.19-31.99c-21.12-21.32-31.68-47.35-31.68-78.07s10.56-56.74,31.68-78.07c21.12-21.32,47.65-31.99,79.59-31.99,19.61,0,37.6,4.7,53.97,14.1,16.37,9.4,29,21.78,37.89,37.14l-24.25,14.25c-6.06-11.52-15.21-20.77-27.44-27.74-12.23-6.97-25.72-10.46-40.47-10.46-24.26,0-44.17,7.94-59.73,23.8-15.57,15.87-23.34,35.53-23.34,58.97s7.83,43.05,23.5,58.82c15.66,15.77,35.92,23.65,60.79,23.65,21.22,0,38.4-5.2,51.54-15.62,13.13-10.41,21.12-23.9,23.95-40.47h-77.92v-25.47h106.11Z"/>
      <path d="M1744.17,625.26h28.2v212.23h-22.74l-109.15-158.57v158.57h-28.2v-212.23h21.8l110.08,159.38v-159.38Z"/>
    </g>
  </g>
  <path d="M620.13,321.19c12.24-3.15,21.29-14.26,21.29-27.49,0-15.67-12.71-28.38-28.38-28.38s-28.38,12.71-28.38,28.38c0,13.22,9.05,24.34,21.29,27.49v141.92c-37.99-135.32-144.83-242.13-280.18-280.05h137.56c3.15,12.24,14.26,21.29,27.49,21.29,15.67,0,28.38-12.71,28.38-28.38s-12.71-28.38-28.38-28.38c-13.22,0-24.34,9.05-27.49,21.29h-213.37v-21.29h-69.46v69.46h69.46v-19.1c179.73,15.76,323.57,158.62,340.85,337.92h-22.03v72.64h22.03c-17.27,179.2-160.96,322.01-340.56,337.89v-19.37h-70.04v70.04h70.04v-21.29h213.08c3.15,12.24,14.26,21.29,27.49,21.29,15.67,0,28.38-12.71,28.38-28.38s-12.71-28.38-28.38-28.38c-13.23,0-24.34,9.05-27.49,21.29h-138.61c135.84-37.67,243.14-144.67,281.22-280.34v141.92c-12.24,3.15-21.29,14.26-21.29,27.49,0,15.67,12.71,28.38,28.38,28.38s28.38-12.71,28.38-28.38c0-13.23-9.05-24.34-21.29-27.49v-214.67h21.29v-72.64h-21.29v-214.67Z"/>
</svg>