<?xml version="1.0" encoding="UTF-8"?>
<svg id="Camada_1" data-name="Camada 1" xmlns="http://www.w3.org/2000/svg" viewBox="0 0 1030 1030">
  <path d="M522.39,875.53c-4.18,3.4-10.62,3.36-14.74,0-72.48-92.58-146.06-185.3-207.97-285.58-85-137.68-148.84-265.9-52.85-419.97,126.68-203.31,428.03-195.18,544.62,13.61,76.43,136.88,31.96,247.74-39.72,372.11-65.36,113.41-148.93,217.03-229.33,319.83ZM496.74,173.6c-128.77,12.1-192.1,167.92-110.78,268.49,74.98,92.73,223.51,78.14,276.79-28.98,59.17-118.98-34.75-251.84-166.01-239.5Z"/>
  <path d="M433.58,832.43c-25.26,4.9-56.13,8.89-78.82,21.51-43.43,24.15-7.4,46.13,22.15,56.05,71.86,24.1,202.79,24.2,274.74.5,48.74-16.06,64.08-42.69,6.87-63.62-20.13-7.37-41.43-10.15-62.05-15.39l52.05-68.09c5.4-3.09,57.29,6.28,67.48,8.13,54.85,9.95,151.8,33.89,187.36,78.8,42.67,53.91-36.51,94.41-77.98,110.76-158.63,62.52-476.98,63.94-633.47-5.12-39.28-17.33-104.88-56.29-65.22-105.64,33.41-41.57,116.63-64.18,167.48-74.84,13.51-2.83,79.71-15.97,87.76-11.52l51.65,68.48Z"/>
</svg>