<?xml version="1.0" encoding="UTF-8"?>
<svg id="Camada_1" data-name="Camada 1" xmlns="http://www.w3.org/2000/svg" viewBox="0 0 2060 734.35">
  <defs>
    <style>
      .cls-1 {
        fill: #fff;
      }
    </style>
  </defs>
  <g>
    <g>
      <path class="cls-1" d="M861.5,423.3v-155.61h18.23l69.8,117.6h-9.78l68.92-117.6h18.23l.22,155.61h-21.34l-.23-122.04h5.12l-61.36,103.14h-10.23l-61.8-103.14h5.56v122.04h-21.34Z"/>
      <path class="cls-1" d="M1096.03,403.96h90.7v19.34h-112.93v-155.61h109.82v19.34h-87.59v116.93ZM1094.03,334.82h80.03v18.9h-80.03v-18.9Z"/>
      <path class="cls-1" d="M1222.74,423.3v-155.61h65.58c16.59,0,31.23,3.26,43.9,9.78,12.67,6.52,22.53,15.64,29.57,27.34,7.04,11.71,10.56,25.27,10.56,40.68s-3.52,28.98-10.56,40.68c-7.04,11.7-16.9,20.82-29.57,27.34-12.67,6.52-27.31,9.78-43.9,9.78h-65.58ZM1244.97,403.96h42.02c12.89,0,24.04-2.45,33.45-7.34,9.41-4.89,16.71-11.75,21.9-20.56,5.18-8.81,7.78-19.01,7.78-30.56s-2.6-21.93-7.78-30.68c-5.19-8.74-12.49-15.56-21.9-20.45-9.41-4.89-20.56-7.34-33.45-7.34h-42.02v116.93Z"/>
      <path class="cls-1" d="M1406.36,423.3v-155.61h22.23v155.61h-22.23Z"/>
      <path class="cls-1" d="M1544.85,425.07c-11.86,0-22.79-1.96-32.79-5.89-10-3.92-18.67-9.48-26.01-16.67-7.34-7.18-13.08-15.59-17.23-25.23-4.15-9.63-6.23-20.23-6.23-31.79s2.08-22.16,6.23-31.79c4.15-9.63,9.92-18.04,17.34-25.23,7.41-7.19,16.12-12.75,26.12-16.68,10-3.93,20.93-5.89,32.79-5.89s23.08,2.04,33.23,6.11c10.15,4.08,18.78,10.11,25.9,18.12l-14.45,14c-5.93-6.22-12.6-10.85-20-13.89-7.41-3.03-15.34-4.55-23.79-4.55s-16.86,1.48-24.34,4.45c-7.49,2.97-13.97,7.11-19.45,12.45-5.48,5.34-9.75,11.67-12.78,19.01-3.04,7.34-4.56,15.3-4.56,23.9s1.52,16.56,4.56,23.89c3.03,7.34,7.3,13.68,12.78,19.01,5.48,5.34,11.97,9.48,19.45,12.45,7.48,2.97,15.59,4.44,24.34,4.44s16.38-1.52,23.79-4.55c7.41-3.03,14.07-7.74,20-14.12l14.45,14c-7.11,8.01-15.75,14.08-25.9,18.23-10.15,4.15-21.31,6.22-33.45,6.22Z"/>
      <path class="cls-1" d="M1635.99,423.3v-155.61h22.23v155.61h-22.23Z"/>
      <path class="cls-1" d="M1704.9,423.3v-155.61h18.23l102.93,127.82h-9.56v-127.82h22.23v155.61h-18.23l-102.92-127.82h9.56v127.82h-22.23Z"/>
      <path class="cls-1" d="M1861.85,423.3l70.47-155.61h22.01l70.69,155.61h-23.34l-62.91-143.16h8.9l-62.91,143.16h-22.9ZM1891.86,384.39l6-17.78h87.59l6.45,17.78h-100.04Z"/>
    </g>
    <g>
      <path class="cls-1" d="M878.18,580.88h-16.67v-116.71h82.36v14.5h-65.69v102.2ZM876.51,519.36h60.19v14.34h-60.19v-14.34Z"/>
      <path class="cls-1" d="M1018.73,582.21c-8.89,0-17.15-1.5-24.76-4.5-7.62-3-14.2-7.19-19.76-12.59-5.56-5.39-9.89-11.7-13-18.92-3.11-7.23-4.67-15.11-4.67-23.67s1.56-16.45,4.67-23.68c3.11-7.22,7.44-13.53,13-18.92,5.56-5.39,12.12-9.59,19.67-12.58,7.56-3,15.84-4.5,24.84-4.5s17.12,1.48,24.67,4.42c7.56,2.95,14.12,7.11,19.67,12.51,5.56,5.39,9.86,11.73,12.92,19,3.06,7.28,4.58,15.2,4.58,23.76s-1.53,16.62-4.58,23.84c-3.06,7.23-7.36,13.53-12.92,18.92-5.56,5.39-12.12,9.56-19.67,12.5-7.56,2.95-15.78,4.42-24.67,4.42ZM1018.56,567.37c6.56,0,12.59-1.11,18.09-3.33,5.5-2.23,10.28-5.36,14.34-9.42,4.06-4.05,7.23-8.81,9.5-14.25,2.28-5.44,3.42-11.39,3.42-17.84s-1.14-12.36-3.42-17.76c-2.28-5.39-5.45-10.14-9.5-14.25-4.06-4.11-8.84-7.28-14.34-9.5-5.5-2.22-11.53-3.33-18.09-3.33s-12.42,1.11-17.92,3.33c-5.5,2.23-10.31,5.39-14.42,9.5-4.11,4.11-7.31,8.86-9.59,14.25-2.28,5.39-3.42,11.31-3.42,17.76s1.14,12.39,3.42,17.84c2.28,5.45,5.47,10.2,9.59,14.25,4.11,4.06,8.92,7.2,14.42,9.42,5.5,2.23,11.48,3.33,17.92,3.33Z"/>
      <path class="cls-1" d="M1106.09,580.88v-116.71h45.51c10.23,0,18.95,1.61,26.18,4.83,7.23,3.23,12.78,7.89,16.68,14.01,3.89,6.11,5.83,13.4,5.83,21.84s-1.95,15.71-5.83,21.76c-3.89,6.06-9.45,10.7-16.68,13.92-7.23,3.23-15.95,4.83-26.18,4.83h-36.35l7.5-7.67v43.18h-16.67ZM1122.76,539.37l-7.5-8.17h35.85c10.67,0,18.76-2.3,24.26-6.92,5.5-4.61,8.25-11.09,8.25-19.43s-2.75-14.78-8.25-19.34c-5.5-4.56-13.59-6.83-24.26-6.83h-35.85l7.5-8.34v69.02ZM1184.12,580.88l-29.68-42.35h17.84l30.01,42.35h-18.17Z"/>
      <path class="cls-1" d="M1248.8,580.88v-102.2h-40.01v-14.5h96.53v14.5h-40.02v102.2h-16.51Z"/>
      <path class="cls-1" d="M1299.99,580.88l52.85-116.71h16.51l53.02,116.71h-17.51l-47.18-107.37h6.67l-47.18,107.37h-17.17ZM1322.5,551.7l4.5-13.34h65.69l4.84,13.34h-75.03Z"/>
      <path class="cls-1" d="M1439.71,580.88v-116.71h16.67v102.2h63.19v14.5h-79.86Z"/>
      <path class="cls-1" d="M1555.41,566.38h68.02v14.5h-84.7v-116.71h82.36v14.5h-65.69v87.7ZM1553.92,514.53h60.02v14.17h-60.02v-14.17Z"/>
      <path class="cls-1" d="M1640.11,580.88v-11.34l78.53-97.37,1.84,6.5h-79.19v-14.5h94.2v11.34l-78.19,97.37-2-6.5h82.36v14.5h-97.53Z"/>
      <path class="cls-1" d="M1742.31,580.88l52.85-116.71h16.51l53.02,116.71h-17.51l-47.18-107.37h6.67l-47.18,107.37h-17.17ZM1764.82,551.7l4.5-13.34h65.69l4.84,13.34h-75.03Z"/>
    </g>
    <g>
      <g>
        <path class="cls-1" d="M555.77,562.27l-5.8-161.75c-15.72,7.4-29.18,15.18-40.37,23.31l5.13,138.63c.67,18.13-13.85,33.2-32,33.2h-27.79v8.24h163.1v-8.24h-27.66c-18.64,0-33.94-14.76-34.61-33.39Z"/>
        <path class="cls-1" d="M438.25,130.46v8.24h27.66c17.24,0,31.59,12.63,34.18,29.26l-164.53,361.97-5.79-12.74L157.74,138.7l-3.75-8.24H51.67v8.24h39.32c19.61,0,35.31,16.27,34.61,35.87l-13.91,387.7c-.67,18.63-15.96,33.39-34.6,33.39h-42.1v8.24h163.1v-8.24h-39.32c-19.61,0-35.31-16.27-34.61-35.87l13.14-366.42,23.11,50.85h0s147.33,324.13,147.33,324.13l5.36,11.79,4.53,9.96.18.39,10.54-23.19-.3-.13,48.17-105.97-.29-.13,125.09-275.19,6.89,191.94.3,8.49.51,13.66c11.72-7.44,25.2-14.51,40.48-21.26l-.18-4.88-8.43-235.12h198.47c19.13,0,34.63,15.51,34.63,34.63v42.8h8.24v-85.67h-343.67Z"/>
      </g>
      <path class="cls-1" d="M594.2,382.74c-.83,50.96-10.47,95.4-33.9,118.22l.31,8.76c29.04-23.77,39.41-73.83,39.85-129.13-2,.67-4.11,1.4-6.27,2.16Z"/>
      <path class="cls-1" d="M566.2,192c14.67,48.17,26.19,111.49,27.84,169.46,2.12-.72,4.18-1.4,6.12-2.04-2.17-63.3-15.47-129.78-27.53-169.38-8.16-26.82-20.02-58.07-32.06-58.07v6.72c2.67,0,12.13,8.98,25.63,53.3Z"/>
      <path class="cls-1" d="M684.34,343.73c-31.3,7.07-59.25,14.62-83.95,22.71-2.11.7-3.85,1.26-6.17,2.05-61.03,20.65-101.33,44.68-122.24,72.72-17.2,23.06-16.55,52.48,1.58,71.53,7.52,7.9,18.97,14.21,33.16,15.46l-.25-6.61c-11.83-1.22-21.42-6.52-28.04-13.48-15.83-16.63-16.27-42.49-1.06-62.88,19.89-26.67,58.43-49.71,116.89-69.69,1.56-.54,4.75-1.6,6.22-2.09,24.94-8.23,53.36-15.94,85.33-23.16l-1.48-6.56Z"/>
      <path class="cls-1" d="M720.32,318.46c-11.59,0-20.98,9.39-20.98,20.98s9.39,20.98,20.98,20.98,20.98-9.39,20.98-20.98-9.39-20.98-20.98-20.98ZM720.32,353.7c-7.87,0-14.26-6.38-14.26-14.26s6.38-14.26,14.26-14.26,14.26,6.38,14.26,14.26-6.38,14.26-14.26,14.26Z"/>
    </g>
  </g>
  <g>
    <path class="cls-1" d="M861.55,226.57v-59.67h23.27c5.23,0,9.69.82,13.39,2.47,3.69,1.65,6.53,4.03,8.52,7.16,1.99,3.13,2.99,6.85,2.99,11.17s-1,8.02-2.99,11.12c-1.99,3.09-4.83,5.48-8.52,7.16-3.69,1.67-8.16,2.51-13.39,2.51h-18.58l3.83-4.01v22.08h-8.53ZM870.08,205.34l-3.83-4.26h18.33c5.45,0,9.59-1.17,12.4-3.49,2.82-2.33,4.22-5.63,4.22-9.89s-1.41-7.56-4.22-9.89c-2.81-2.33-6.94-3.49-12.4-3.49h-18.33l3.83-4.26v35.29Z"/>
    <path class="cls-1" d="M938.1,219.15h34.78v7.42h-43.3v-59.67h42.11v7.42h-33.59v44.83ZM937.33,192.64h30.69v7.25h-30.69v-7.25Z"/>
    <path class="cls-1" d="M993,226.57v-59.67h23.27c5.23,0,9.69.82,13.39,2.47,3.69,1.65,6.53,4.03,8.52,7.16,1.99,3.13,2.99,6.85,2.99,11.17s-1,8.02-2.99,11.12c-1.99,3.09-4.83,5.47-8.52,7.12-3.69,1.65-8.16,2.47-13.39,2.47h-18.58l3.83-3.92v22.08h-8.53ZM1001.52,205.34l-3.83-4.18h18.33c5.45,0,9.59-1.18,12.4-3.54,2.82-2.35,4.22-5.66,4.22-9.93s-1.41-7.56-4.22-9.89c-2.81-2.33-6.94-3.49-12.4-3.49h-18.33l3.83-4.26v35.29ZM1032.89,226.57l-15.17-21.65h9.12l15.34,21.65h-9.29Z"/>
    <path class="cls-1" d="M1060.27,162.04l11.59-11.08h10.4l-14.32,11.08h-7.67ZM1062.39,226.57v-59.67h8.53v59.67h-8.53Z"/>
    <path class="cls-1" d="M1122.86,227.25c-4.55,0-8.74-.76-12.57-2.26-3.84-1.51-7.16-3.64-9.98-6.39-2.81-2.76-5.01-5.98-6.61-9.68-1.59-3.69-2.39-7.76-2.39-12.19s.8-8.49,2.39-12.19c1.59-3.69,3.81-6.92,6.65-9.68,2.84-2.75,6.18-4.89,10.02-6.39,3.83-1.5,8.02-2.26,12.58-2.26s8.85.78,12.74,2.35c3.89,1.56,7.2,3.88,9.93,6.94l-5.54,5.37c-2.28-2.39-4.83-4.16-7.67-5.33-2.84-1.16-5.88-1.75-9.12-1.75s-6.47.57-9.34,1.7c-2.87,1.14-5.35,2.73-7.46,4.77-2.1,2.05-3.74,4.47-4.9,7.29-1.16,2.81-1.75,5.87-1.75,9.16s.58,6.35,1.75,9.16c1.16,2.82,2.8,5.24,4.9,7.29,2.1,2.05,4.59,3.64,7.46,4.77,2.87,1.14,5.98,1.7,9.34,1.7s6.28-.58,9.12-1.75c2.84-1.16,5.4-2.97,7.67-5.41l5.54,5.37c-2.73,3.07-6.04,5.4-9.93,6.99-3.9,1.59-8.17,2.39-12.83,2.39Z"/>
    <path class="cls-1" d="M1164.65,226.57v-59.67h8.53v59.67h-8.53Z"/>
    <path class="cls-1" d="M1190.12,226.57l27.02-59.67h8.44l27.11,59.67h-8.95l-24.12-54.9h3.41l-24.12,54.9h-8.78ZM1201.63,211.65l2.3-6.82h33.59l2.47,6.82h-38.36Z"/>
    <path class="cls-1" d="M1301.53,226.57v-59.67h6.99l26.77,45.09h-3.75l26.43-45.09h6.99l.08,59.67h-8.19l-.08-46.8h1.96l-23.53,39.55h-3.92l-23.7-39.55h2.13v46.8h-8.19Z"/>
    <path class="cls-1" d="M1398.56,219.15h34.78v7.42h-43.3v-59.67h42.11v7.42h-33.59v44.83ZM1397.79,192.64h30.69v7.25h-30.69v-7.25ZM1404.79,162.04l11.59-11.08h10.4l-14.32,11.08h-7.67Z"/>
    <path class="cls-1" d="M1453.46,226.57v-59.67h25.15c6.36,0,11.98,1.25,16.83,3.75,4.86,2.5,8.64,5.99,11.34,10.48,2.7,4.49,4.05,9.69,4.05,15.6s-1.35,11.11-4.05,15.6c-2.7,4.49-6.48,7.99-11.34,10.48-4.86,2.5-10.47,3.75-16.83,3.75h-25.15ZM1461.99,219.15h16.12c4.94,0,9.22-.93,12.83-2.81,3.61-1.88,6.4-4.51,8.4-7.89,1.99-3.38,2.98-7.29,2.98-11.72s-1-8.41-2.98-11.76c-1.99-3.35-4.79-5.97-8.4-7.84-3.61-1.88-7.89-2.81-12.83-2.81h-16.12v44.83Z"/>
    <path class="cls-1" d="M1531.7,226.57v-59.67h8.53v59.67h-8.53Z"/>
    <path class="cls-1" d="M1592.65,227.25c-4.55,0-8.74-.76-12.57-2.26-3.84-1.51-7.16-3.64-9.98-6.39-2.81-2.76-5.01-5.98-6.61-9.68-1.59-3.69-2.39-7.76-2.39-12.19s.8-8.49,2.39-12.19c1.59-3.69,3.81-6.92,6.65-9.68,2.84-2.75,6.18-4.89,10.02-6.39,3.83-1.5,8.02-2.26,12.58-2.26s8.85.78,12.74,2.35c3.89,1.56,7.2,3.88,9.93,6.94l-5.54,5.37c-2.28-2.39-4.83-4.16-7.67-5.33-2.84-1.16-5.88-1.75-9.12-1.75s-6.47.57-9.34,1.7c-2.87,1.14-5.35,2.73-7.46,4.77s-3.74,4.47-4.9,7.29c-1.16,2.81-1.75,5.87-1.75,9.16s.58,6.35,1.75,9.16c1.16,2.82,2.8,5.24,4.9,7.29s4.59,3.64,7.46,4.77c2.87,1.14,5.98,1.7,9.34,1.7s6.28-.58,9.12-1.75c2.84-1.16,5.4-2.97,7.67-5.41l5.54,5.37c-2.73,3.07-6.04,5.4-9.93,6.99-3.9,1.59-8.17,2.39-12.83,2.39Z"/>
    <path class="cls-1" d="M1627.89,226.57l27.02-59.67h8.44l27.11,59.67h-8.95l-24.12-54.9h3.41l-24.12,54.9h-8.78ZM1639.39,211.65l2.3-6.82h33.59l2.47,6.82h-38.36Z"/>
  </g>
</svg>