<?xml version="1.0" encoding="UTF-8"?>
<svg id="Camada_1" data-name="Camada 1" xmlns="http://www.w3.org/2000/svg" viewBox="0 0 1030 1030">
  <defs>
    <style>
      .cls-1 {
        fill: #010101;
      }
    </style>
  </defs>
  <path class="cls-1" d="M776.84,203.62c-32.99,0-57.74,24.75-57.74,57.74s24.75,57.74,57.74,57.74,57.74-24.75,57.74-57.74c0-32.99-24.75-57.74-57.74-57.74Z"/>
  <path class="cls-1" d="M517.02,277.85c-136.1,0-243.33,111.36-243.33,243.33s111.36,243.33,243.33,243.33,243.33-111.36,243.33-243.33-107.23-243.33-243.33-243.33ZM517.02,677.91c-86.61,0-156.72-70.11-156.72-156.72s70.11-156.72,156.72-156.72,156.72,70.11,156.72,156.72-70.11,156.72-156.72,156.72Z"/>
  <path class="cls-1" d="M714.98,22.15h-391.81C154.08,22.15,22.1,154.13,22.1,319.1v391.81c0,164.97,131.98,296.95,296.95,296.95h391.81c164.97,0,296.95-131.98,296.95-296.95v-391.81c4.12-164.97-127.85-296.95-292.82-296.95ZM917.07,715.03c0,111.36-90.73,206.21-206.21,206.21h-391.81c-111.36,0-206.21-90.73-206.21-206.21v-391.81c0-111.36,90.73-206.21,206.21-206.21h391.81c111.36,0,206.21,90.73,206.21,206.21v391.81Z"/>
</svg>