<?xml version="1.0" encoding="UTF-8"?>
<svg id="Camada_1" data-name="Camada 1" xmlns="http://www.w3.org/2000/svg" xmlns:xlink="http://www.w3.org/1999/xlink" viewBox="0 0 1000 400">
  <defs>
    <style>
      .cls-1 {
        letter-spacing: .08em;
      }

      .cls-2 {
        fill: url(#Gradiente_sem_nome_137);
      }

      .cls-3, .cls-4 {
        fill: #e2cfb0;
      }

      .cls-5 {
        letter-spacing: .1em;
      }

      .cls-6 {
        letter-spacing: .1em;
      }

      .cls-7 {
        fill: url(#Gradiente_sem_nome_596-2);
      }

      .cls-4 {
        font-family: MontserratRoman-Medium, Montserrat;
        font-size: 41.65px;
        font-variation-settings: 'wght' 500;
        font-weight: 500;
      }

      .cls-8 {
        letter-spacing: .08em;
      }

      .cls-9 {
        fill: url(#Gradiente_sem_nome_137-2);
      }

      .cls-10 {
        letter-spacing: .07em;
      }

      .cls-11 {
        fill: url(#Gradiente_sem_nome_596-3);
      }

      .cls-12 {
        letter-spacing: .07em;
      }

      .cls-13 {
        letter-spacing: .06em;
      }

      .cls-14 {
        fill: url(#Gradiente_sem_nome_596);
      }

      .cls-15 {
        letter-spacing: .08em;
      }

      .cls-16 {
        letter-spacing: .09em;
      }

      .cls-17 {
        letter-spacing: .07em;
      }

      .cls-18 {
        letter-spacing: .07em;
      }

      .cls-19 {
        letter-spacing: .08em;
      }

      .cls-20 {
        letter-spacing: .08em;
      }

      .cls-21 {
        letter-spacing: .08em;
      }

      .cls-22 {
        letter-spacing: .1em;
      }

      .cls-23 {
        fill: #f7f5f2;
      }
    </style>
    <linearGradient id="Gradiente_sem_nome_137" data-name="Gradiente sem nome 137" x1="216.81" y1="266.5" x2="297.13" y2="266.5" gradientUnits="userSpaceOnUse">
      <stop offset="0" stop-color="#c09d5d"/>
      <stop offset="1" stop-color="#e2cfb0"/>
    </linearGradient>
    <linearGradient id="Gradiente_sem_nome_137-2" data-name="Gradiente sem nome 137" x1="10" y1="200" x2="377.83" y2="200" xlink:href="#Gradiente_sem_nome_137"/>
    <linearGradient id="Gradiente_sem_nome_596" data-name="Gradiente sem nome 596" x1="268.69" y1="238.4" x2="288.47" y2="238.4" gradientUnits="userSpaceOnUse">
      <stop offset="0" stop-color="#c09d5d"/>
      <stop offset="1" stop-color="#d7be96"/>
    </linearGradient>
    <linearGradient id="Gradiente_sem_nome_596-2" data-name="Gradiente sem nome 596" x1="273.65" y1="197.19" x2="273.65" y2="84.17" xlink:href="#Gradiente_sem_nome_596"/>
    <linearGradient id="Gradiente_sem_nome_596-3" data-name="Gradiente sem nome 596" x1="219.06" y1="233.87" x2="330.51" y2="233.87" xlink:href="#Gradiente_sem_nome_596"/>
  </defs>
  <g>
    <path class="cls-23" d="M417.02,227.64v-76.63h8.98l34.38,57.91h-4.82l33.94-57.91h8.98l.11,76.63h-10.51l-.11-60.1h2.52l-30.21,50.79h-5.04l-30.43-50.79h2.74v60.1h-10.51Z"/>
    <path class="cls-23" d="M532.52,218.11h44.66v9.52h-55.61v-76.63h54.08v9.52h-43.13v57.58ZM531.53,184.07h39.41v9.31h-39.41v-9.31Z"/>
    <path class="cls-23" d="M594.92,227.64v-76.63h32.29c8.17,0,15.38,1.61,21.62,4.82,6.24,3.21,11.09,7.7,14.56,13.47,3.47,5.77,5.2,12.44,5.2,20.03s-1.73,14.27-5.2,20.03c-3.47,5.76-8.32,10.25-14.56,13.47-6.24,3.21-13.45,4.82-21.62,4.82h-32.29ZM605.86,218.11h20.69c6.35,0,11.84-1.2,16.47-3.61,4.63-2.41,8.23-5.78,10.78-10.13,2.55-4.34,3.83-9.36,3.83-15.05s-1.28-10.8-3.83-15.11c-2.56-4.31-6.15-7.66-10.78-10.07-4.63-2.41-10.13-3.61-16.47-3.61h-20.69v57.58Z"/>
    <path class="cls-23" d="M685.34,227.64v-76.63h10.95v76.63h-10.95Z"/>
    <path class="cls-23" d="M753.54,228.51c-5.84,0-11.22-.96-16.15-2.9-4.93-1.93-9.2-4.67-12.81-8.21-3.61-3.54-6.44-7.68-8.48-12.42-2.04-4.74-3.07-9.96-3.07-15.66s1.02-10.91,3.07-15.66c2.04-4.74,4.89-8.88,8.54-12.42,3.65-3.54,7.94-6.28,12.86-8.21,4.93-1.93,10.31-2.9,16.15-2.9s11.37,1,16.37,3.01c5,2.01,9.25,4.98,12.75,8.92l-7.12,6.9c-2.92-3.06-6.2-5.35-9.85-6.84-3.65-1.49-7.55-2.24-11.72-2.24s-8.3.73-11.99,2.19c-3.69,1.46-6.88,3.5-9.58,6.13-2.7,2.63-4.8,5.75-6.29,9.36-1.5,3.61-2.25,7.54-2.25,11.77s.75,8.15,2.25,11.77c1.49,3.61,3.59,6.74,6.29,9.36,2.7,2.63,5.89,4.67,9.58,6.13,3.68,1.46,7.68,2.19,11.99,2.19s8.06-.75,11.72-2.24c3.65-1.49,6.93-3.81,9.85-6.95l7.12,6.9c-3.5,3.94-7.76,6.94-12.75,8.98-5,2.04-10.49,3.06-16.47,3.06Z"/>
    <path class="cls-23" d="M798.42,227.64v-76.63h10.95v76.63h-10.95Z"/>
    <path class="cls-23" d="M832.36,227.64v-76.63h8.98l50.69,62.95h-4.71v-62.95h10.95v76.63h-8.98l-50.69-62.95h4.71v62.95h-10.95Z"/>
    <path class="cls-23" d="M909.65,227.64l34.7-76.63h10.84l34.81,76.63h-11.49l-30.98-70.5h4.38l-30.98,70.5h-11.28ZM924.43,208.48l2.96-8.76h43.13l3.18,8.76h-49.26Z"/>
  </g>
  <g>
    <path class="cls-23" d="M425.23,305.24h-8.21v-57.47h40.56v7.14h-32.35v50.33ZM424.41,274.94h29.64v7.06h-29.64v-7.06Z"/>
    <path class="cls-23" d="M494.45,305.9c-4.38,0-8.44-.74-12.19-2.22-3.75-1.48-6.99-3.54-9.73-6.2-2.74-2.65-4.87-5.76-6.4-9.32-1.53-3.56-2.3-7.44-2.3-11.66s.77-8.1,2.3-11.66c1.53-3.56,3.66-6.66,6.4-9.32,2.74-2.65,5.97-4.72,9.69-6.2,3.72-1.48,7.8-2.22,12.23-2.22s8.43.73,12.15,2.18c3.72,1.45,6.95,3.5,9.69,6.16,2.74,2.65,4.86,5.77,6.36,9.36,1.51,3.59,2.26,7.49,2.26,11.7s-.75,8.18-2.26,11.74c-1.51,3.56-3.63,6.67-6.36,9.32-2.74,2.66-5.97,4.71-9.69,6.16-3.72,1.45-7.77,2.18-12.15,2.18ZM494.37,298.59c3.23,0,6.2-.54,8.91-1.64,2.71-1.1,5.06-2.64,7.06-4.64,2-2,3.56-4.34,4.68-7.02,1.12-2.68,1.68-5.61,1.68-8.78s-.56-6.09-1.68-8.74c-1.12-2.65-2.68-4.99-4.68-7.02-2-2.02-4.35-3.58-7.06-4.68-2.71-1.09-5.68-1.64-8.91-1.64s-6.12.55-8.83,1.64c-2.71,1.1-5.08,2.66-7.1,4.68-2.02,2.02-3.6,4.36-4.72,7.02-1.12,2.66-1.68,5.57-1.68,8.74s.56,6.1,1.68,8.78c1.12,2.68,2.7,5.02,4.72,7.02,2.02,2,4.39,3.54,7.1,4.64,2.71,1.1,5.65,1.64,8.83,1.64Z"/>
    <path class="cls-23" d="M537.47,305.24v-57.47h22.41c5.04,0,9.33.79,12.89,2.38,3.56,1.59,6.29,3.89,8.21,6.9,1.91,3.01,2.87,6.6,2.87,10.75s-.96,7.73-2.87,10.72c-1.92,2.99-4.65,5.27-8.21,6.86-3.56,1.59-7.85,2.38-12.89,2.38h-17.9l3.69-3.78v21.26h-8.21ZM545.68,284.8l-3.69-4.02h17.65c5.26,0,9.24-1.13,11.95-3.41,2.71-2.27,4.06-5.46,4.06-9.57s-1.35-7.28-4.06-9.52c-2.71-2.24-6.69-3.37-11.95-3.37h-17.65l3.69-4.11v33.99ZM575.9,305.24l-14.61-20.85h8.78l14.78,20.85h-8.95Z"/>
    <path class="cls-23" d="M607.75,305.24v-50.33h-19.7v-7.14h47.54v7.14h-19.71v50.33h-8.13Z"/>
    <path class="cls-23" d="M632.96,305.24l26.03-57.47h8.13l26.11,57.47h-8.62l-23.24-52.88h3.29l-23.24,52.88h-8.46ZM644.04,290.87l2.22-6.57h32.35l2.38,6.57h-36.95Z"/>
    <path class="cls-23" d="M701.76,305.24v-57.47h8.21v50.33h31.12v7.14h-39.33Z"/>
    <path class="cls-23" d="M758.74,298.1h33.5v7.14h-41.71v-57.47h40.56v7.14h-32.35v43.19ZM758.01,272.56h29.56v6.98h-29.56v-6.98Z"/>
    <path class="cls-23" d="M800.45,305.24v-5.58l38.67-47.95.9,3.2h-39v-7.14h46.39v5.58l-38.51,47.95-.99-3.2h40.56v7.14h-48.03Z"/>
    <path class="cls-23" d="M850.78,305.24l26.03-57.47h8.13l26.11,57.47h-8.62l-23.24-52.88h3.29l-23.24,52.88h-8.46ZM861.87,290.87l2.22-6.57h32.35l2.38,6.57h-36.95Z"/>
  </g>
  <g>
    <g>
      <path class="cls-2" d="M266.46,296.07l-2.86-79.66c-7.74,3.64-14.37,7.47-19.88,11.48l2.53,68.27c.33,8.93-6.82,16.35-15.76,16.35h-13.69v4.06h80.32v-4.06h-13.62c-9.18,0-16.71-7.27-17.04-16.44Z"/>
      <path class="cls-9" d="M208.59,83.43v4.06h13.62c8.49,0,15.56,6.22,16.83,14.41l-81.02,178.25-2.85-6.27L70.45,87.49l-1.85-4.06H18.22v4.06h19.36c9.66,0,17.39,8.01,17.04,17.66l-6.85,190.92c-.33,9.17-7.86,16.44-17.04,16.44H10v4.06h80.32v-4.06h-19.36c-9.66,0-17.39-8.01-17.04-17.66l6.47-180.45,11.38,25.04h0s72.56,159.62,72.56,159.62l2.64,5.8,2.23,4.9.09.19,5.19-11.42-.15-.07,23.72-52.18-.14-.07,61.6-135.52,3.39,94.52.15,4.18.25,6.73c5.77-3.66,12.41-7.15,19.93-10.47l-.09-2.41-4.15-115.78h97.74c9.42,0,17.05,7.64,17.05,17.05v21.08h4.06v-42.19h-169.24Z"/>
    </g>
    <path class="cls-14" d="M285.39,207.67c-.41,25.1-5.15,46.98-16.69,58.22l.15,4.31c14.3-11.71,19.41-36.36,19.63-63.59-.99.33-2.02.69-3.09,1.06Z"/>
    <path class="cls-7" d="M271.6,113.73c7.22,23.72,12.9,54.9,13.71,83.45,1.05-.35,2.06-.69,3.01-1-1.07-31.17-7.62-63.91-13.56-83.41-4.02-13.21-9.86-28.59-15.79-28.59v3.31c1.31,0,5.97,4.42,12.62,26.25Z"/>
    <path class="cls-11" d="M329.78,188.45c-15.41,3.48-29.18,7.2-41.34,11.18-1.04.34-1.9.62-3.04,1.01-30.06,10.17-49.9,22-60.2,35.81-8.47,11.36-8.15,25.84.78,35.23,3.7,3.89,9.34,7,16.33,7.61l-.12-3.25c-5.83-.6-10.55-3.21-13.81-6.64-7.8-8.19-8.01-20.92-.52-30.96,9.8-13.14,28.77-24.48,57.57-34.32.77-.26,2.34-.79,3.06-1.03,12.28-4.05,26.28-7.85,42.02-11.41l-.73-3.23Z"/>
    <path class="cls-3" d="M347.5,176.01c-5.71,0-10.33,4.63-10.33,10.33s4.63,10.33,10.33,10.33,10.33-4.63,10.33-10.33-4.62-10.33-10.33-10.33ZM347.5,193.36c-3.88,0-7.02-3.14-7.02-7.02s3.14-7.02,7.02-7.02,7.02,3.14,7.02,7.02-3.14,7.02-7.02,7.02Z"/>
  </g>
  <text class="cls-4" transform="translate(415.1 130.67)"><tspan class="cls-12" x="0" y="0">C</tspan><tspan class="cls-21" x="33.09" y="0">L</tspan><tspan class="cls-1" x="61.17" y="0">Í</tspan><tspan class="cls-18" x="77.26" y="0">N</tspan><tspan class="cls-8" x="114.15" y="0">I</tspan><tspan class="cls-6" x="130.51" y="0">C</tspan><tspan class="cls-5" x="164.84" y="0">A </tspan><tspan class="cls-20" x="214.86" y="0">D</tspan><tspan class="cls-22" x="252.65" y="0">E </tspan><tspan class="cls-10" x="300.09" y="0">P</tspan><tspan class="cls-13" x="332.93" y="0">E</tspan><tspan class="cls-19" x="363.51" y="0">R</tspan><tspan class="cls-15" x="397.03" y="0">Í</tspan><tspan class="cls-17" x="413.16" y="0">C</tspan><tspan class="cls-16" x="446.22" y="0">I</tspan><tspan class="cls-5" x="462.71" y="0">A</tspan></text>
</svg>