<?xml version="1.0" encoding="UTF-8"?>
<svg id="Camada_1" data-name="Camada 1" xmlns="http://www.w3.org/2000/svg" viewBox="0 0 1030 1030">
  <path d="M346.48,284.04c7.41-.59,24.8.23,31.7,1.75,4.38.96,9.18,5.82,11.8,9.34,19.13,25.66,28.81,78.62,46.27,107.46,8.17,23.07-41.55,57.86-40.77,73.69.34,7.02,15.34,28.39,20.15,35.31,32.32,46.58,80.32,88.48,132.32,111.71,13.57,6.06,30.15,16.58,43.06,5.17,13.57-11.98,26.43-35.72,39.28-49.11,12.09-12.6,20.5-8.26,35.53-2.84,26.92,9.71,51.82,25.09,79.76,35.35,28.9,10.61,24.09,27.87,17.69,54.35-12.76,52.84-72.33,80.18-123.35,78.36-42.57-1.51-121.97-35.61-159.12-57.99-78.36-47.2-212.93-191.04-212.87-286.89.02-41.64,31.67-111.93,78.56-115.68Z"/>
  <path d="M516.96,103.53c55.13,0,108.56,10.78,158.82,32.04,48.58,20.55,92.23,49.98,129.74,87.49,37.5,37.5,66.94,81.15,87.49,129.74,21.26,50.26,32.04,103.69,32.04,158.82s-10.78,108.56-32.04,158.82c-20.55,48.58-49.98,92.23-87.49,129.74-37.5,37.5-81.15,66.94-129.74,87.49-50.26,21.26-103.69,32.04-158.82,32.04-34.67,0-69.07-4.34-102.26-12.9-32.18-8.3-63.33-20.59-92.58-36.52l-28-15.25-30.81,8.19-125.54,33.35,32.96-120.98,8.74-32.08-16.58-28.83c-17.38-30.23-30.8-62.58-39.89-96.15-9.37-34.64-14.13-70.61-14.13-106.92,0-55.13,10.78-108.56,32.04-158.82,20.55-48.58,49.98-92.23,87.49-129.74,37.5-37.5,81.15-66.94,129.74-87.49,50.26-21.26,103.69-32.04,158.82-32.04M516.96,23.53C247.4,23.53,28.88,242.05,28.88,511.61c0,88.45,23.53,171.4,64.66,242.94l-69.48,255,259.78-69.02c69.27,37.73,148.69,59.16,233.11,59.16,269.56,0,488.08-218.52,488.08-488.08S786.52,23.53,516.96,23.53h0Z"/>
</svg>