<?xml version="1.0" encoding="UTF-8"?>
<svg id="Camada_1" data-name="Camada 1" xmlns="http://www.w3.org/2000/svg" xmlns:xlink="http://www.w3.org/1999/xlink" viewBox="0 0 1000 1000">
  <defs>
    <style>
      .cls-1 {
        fill: url(#Gradiente_sem_nome_137);
      }

      .cls-2, .cls-3 {
        fill: #e2cfb0;
      }

      .cls-4 {
        letter-spacing: .07em;
      }

      .cls-5 {
        letter-spacing: .07em;
      }

      .cls-6 {
        letter-spacing: .06em;
      }

      .cls-7 {
        letter-spacing: .06em;
      }

      .cls-8 {
        fill: url(#Gradiente_sem_nome_596-2);
      }

      .cls-9 {
        fill: url(#Gradiente_sem_nome_137-2);
      }

      .cls-3 {
        font-family: MontserratRoman-Medium, Montserrat;
        font-size: 71.66px;
        font-variation-settings: 'wght' 500;
        font-weight: 500;
      }

      .cls-10 {
        letter-spacing: .06em;
      }

      .cls-11 {
        fill: url(#Gradiente_sem_nome_596-3);
      }

      .cls-12 {
        fill: url(#Gradiente_sem_nome_596);
      }

      .cls-13 {
        letter-spacing: .07em;
      }

      .cls-14 {
        letter-spacing: .1em;
      }

      .cls-15 {
        letter-spacing: .09em;
      }

      .cls-16 {
        letter-spacing: .06em;
      }

      .cls-17 {
        letter-spacing: .1em;
      }

      .cls-18 {
        letter-spacing: .05em;
      }

      .cls-19 {
        letter-spacing: .07em;
      }

      .cls-20 {
        letter-spacing: .07em;
      }

      .cls-21 {
        letter-spacing: .08em;
      }

      .cls-22 {
        letter-spacing: .07em;
      }

      .cls-23 {
        fill: #f7f5f2;
      }
    </style>
    <linearGradient id="Gradiente_sem_nome_137" data-name="Gradiente sem nome 137" x1="539.15" y1="404.58" x2="676.53" y2="404.58" gradientUnits="userSpaceOnUse">
      <stop offset="0" stop-color="#c09d5d"/>
      <stop offset="1" stop-color="#e2cfb0"/>
    </linearGradient>
    <linearGradient id="Gradiente_sem_nome_137-2" data-name="Gradiente sem nome 137" x1="185.44" y1="290.85" x2="814.56" y2="290.85" xlink:href="#Gradiente_sem_nome_137"/>
    <linearGradient id="Gradiente_sem_nome_596" data-name="Gradiente sem nome 596" x1="627.9" y1="356.53" x2="661.73" y2="356.53" gradientUnits="userSpaceOnUse">
      <stop offset="0" stop-color="#c09d5d"/>
      <stop offset="1" stop-color="#d7be96"/>
    </linearGradient>
    <linearGradient id="Gradiente_sem_nome_596-2" data-name="Gradiente sem nome 596" x1="636.38" y1="286.04" x2="636.38" y2="92.75" xlink:href="#Gradiente_sem_nome_596"/>
    <linearGradient id="Gradiente_sem_nome_596-3" data-name="Gradiente sem nome 596" x1="543.01" y1="348.79" x2="733.62" y2="348.79" xlink:href="#Gradiente_sem_nome_596"/>
  </defs>
  <g>
    <g>
      <g>
        <path class="cls-23" d="M10,673.08v-131.07h15.35l58.79,99.05h-8.24l58.05-99.05h15.35l.19,131.07h-17.97l-.19-102.79h4.31l-51.68,86.88h-8.61l-52.05-86.88h4.68v102.79H10Z"/>
        <path class="cls-23" d="M207.54,656.79h76.39v16.29h-95.12v-131.07h92.5v16.29h-73.77v98.49ZM205.85,598.56h67.41v15.92h-67.41v-15.92Z"/>
        <path class="cls-23" d="M314.26,673.08v-131.07h55.24c13.98,0,26.31,2.75,36.98,8.24,10.67,5.49,18.97,13.17,24.91,23.03,5.93,9.86,8.89,21.28,8.89,34.27s-2.96,24.41-8.89,34.27c-5.93,9.86-14.23,17.54-24.91,23.03-10.67,5.49-23,8.24-36.98,8.24h-55.24ZM332.98,656.79h35.39c10.86,0,20.25-2.06,28.18-6.18,7.93-4.12,14.07-9.89,18.45-17.32,4.37-7.42,6.55-16.01,6.55-25.74s-2.19-18.47-6.55-25.84c-4.37-7.36-10.52-13.11-18.45-17.23-7.93-4.12-17.32-6.18-28.18-6.18h-35.39v98.49Z"/>
        <path class="cls-23" d="M468.92,673.08v-131.07h18.72v131.07h-18.72Z"/>
        <path class="cls-23" d="M585.57,674.57c-9.99,0-19.2-1.65-27.62-4.96-8.43-3.3-15.73-7.98-21.91-14.04-6.18-6.05-11.02-13.13-14.51-21.25-3.5-8.11-5.25-17.04-5.25-26.78s1.75-18.66,5.25-26.78c3.49-8.11,8.36-15.2,14.6-21.25,6.24-6.06,13.58-10.73,22-14.05,8.43-3.31,17.63-4.96,27.62-4.96s19.44,1.72,27.99,5.15c8.55,3.44,15.82,8.52,21.81,15.26l-12.17,11.79c-4.99-5.24-10.61-9.14-16.85-11.7-6.24-2.55-12.92-3.84-20.04-3.84s-14.2,1.25-20.5,3.74c-6.3,2.5-11.77,5.99-16.38,10.48-4.62,4.5-8.21,9.83-10.77,16.01-2.56,6.18-3.84,12.89-3.84,20.13s1.28,13.95,3.84,20.13c2.56,6.18,6.15,11.52,10.77,16.01,4.62,4.5,10.08,7.99,16.38,10.49,6.3,2.5,13.13,3.74,20.5,3.74s13.79-1.28,20.04-3.84c6.24-2.56,11.85-6.52,16.85-11.89l12.17,11.79c-5.99,6.74-13.26,11.86-21.81,15.36-8.55,3.49-17.95,5.24-28.18,5.24Z"/>
        <path class="cls-23" d="M662.34,673.08v-131.07h18.72v131.07h-18.72Z"/>
        <path class="cls-23" d="M720.38,673.08v-131.07h15.35l86.69,107.66h-8.05v-107.66h18.72v131.07h-15.35l-86.69-107.66h8.05v107.66h-18.72Z"/>
        <path class="cls-23" d="M852.57,673.08l59.35-131.07h18.54l59.54,131.07h-19.66l-52.99-120.58h7.49l-52.99,120.58h-19.29ZM877.84,640.31l5.06-14.98h73.77l5.43,14.98h-84.26Z"/>
      </g>
      <g>
        <path class="cls-23" d="M91.56,805.81h-14.04v-98.3h69.37v12.22h-55.33v86.08ZM90.16,753.99h50.7v12.08h-50.7v-12.08Z"/>
        <path class="cls-23" d="M209.94,806.93c-7.49,0-14.44-1.26-20.85-3.79-6.41-2.53-11.96-6.06-16.64-10.6-4.68-4.54-8.33-9.85-10.95-15.94-2.62-6.09-3.93-12.73-3.93-19.94s1.31-13.85,3.93-19.94c2.62-6.08,6.27-11.4,10.95-15.94,4.68-4.54,10.21-8.07,16.57-10.6,6.37-2.53,13.34-3.79,20.93-3.79s14.42,1.24,20.78,3.72c6.37,2.48,11.89,5.99,16.57,10.53,4.68,4.54,8.31,9.88,10.89,16.01,2.57,6.13,3.86,12.81,3.86,20.01s-1.29,14-3.86,20.08c-2.58,6.09-6.2,11.4-10.89,15.94-4.68,4.54-10.21,8.05-16.57,10.53-6.37,2.49-13.29,3.72-20.78,3.72ZM209.8,794.43c5.52,0,10.6-.93,15.24-2.81,4.63-1.87,8.66-4.52,12.08-7.94,3.42-3.41,6.09-7.42,8.01-12.01,1.92-4.59,2.88-9.59,2.88-15.03s-.96-10.41-2.88-14.96c-1.92-4.54-4.59-8.54-8.01-12.01-3.42-3.46-7.44-6.13-12.08-8.01-4.63-1.87-9.71-2.81-15.24-2.81s-10.46.94-15.1,2.81c-4.63,1.87-8.69,4.54-12.15,8.01s-6.16,7.47-8.07,12.01c-1.92,4.54-2.88,9.53-2.88,14.96s.96,10.44,2.88,15.03c1.92,4.59,4.61,8.59,8.07,12.01,3.46,3.42,7.51,6.06,12.15,7.94,4.63,1.87,9.67,2.81,15.1,2.81Z"/>
        <path class="cls-23" d="M283.53,805.81v-98.3h38.34c8.61,0,15.96,1.36,22.05,4.07,6.09,2.72,10.77,6.65,14.05,11.8,3.27,5.15,4.91,11.28,4.91,18.39s-1.64,13.23-4.91,18.33c-3.28,5.11-7.96,9.01-14.05,11.73-6.09,2.72-13.43,4.07-22.05,4.07h-30.61l6.32-6.46v36.37h-14.04ZM297.57,770.84l-6.32-6.88h30.19c8.99,0,15.8-1.94,20.43-5.83,4.63-3.88,6.95-9.34,6.95-16.36s-2.32-12.45-6.95-16.29c-4.63-3.84-11.45-5.76-20.43-5.76h-30.19l6.32-7.02v58.14ZM349.25,805.81l-25-35.67h15.03l25.28,35.67h-15.31Z"/>
        <path class="cls-23" d="M403.73,805.81v-86.08h-33.7v-12.22h81.31v12.22h-33.7v86.08h-13.9Z"/>
        <path class="cls-23" d="M446.85,805.81l44.52-98.3h13.9l44.66,98.3h-14.75l-39.74-90.44h5.62l-39.74,90.44h-14.47ZM465.8,781.23l3.79-11.23h55.33l4.07,11.23h-63.2Z"/>
        <path class="cls-23" d="M564.53,805.81v-98.3h14.04v86.08h53.22v12.22h-67.27Z"/>
        <path class="cls-23" d="M661.99,793.59h57.3v12.22h-71.34v-98.3h69.37v12.22h-55.33v73.87ZM660.72,749.92h50.56v11.94h-50.56v-11.94Z"/>
        <path class="cls-23" d="M733.32,805.81v-9.55l66.14-82.01,1.55,5.48h-66.7v-12.22h79.34v9.55l-65.86,82.01-1.69-5.47h69.37v12.22h-82.15Z"/>
        <path class="cls-23" d="M819.41,805.81l44.52-98.3h13.9l44.66,98.3h-14.75l-39.74-90.44h5.62l-39.74,90.44h-14.47ZM838.36,781.23l3.79-11.23h55.33l4.07,11.23h-63.2Z"/>
      </g>
    </g>
    <g>
      <g>
        <path class="cls-1" d="M624.08,455.17l-4.89-136.24c-13.24,6.23-24.58,12.78-34.01,19.63l4.32,116.77c.57,15.27-11.66,27.97-26.95,27.97h-23.41v6.94h137.38v-6.94h-23.3c-15.7,0-28.59-12.43-29.15-28.12Z"/>
        <path class="cls-9" d="M525.1,91.46v6.94h23.3c14.52,0,26.61,10.64,28.79,24.65l-138.58,304.88-4.88-10.73L288.83,98.41l-3.16-6.94h-86.18v6.94h33.12c16.52,0,29.74,13.71,29.15,30.21l-11.71,326.55c-.56,15.69-13.44,28.12-29.15,28.12h-35.46v6.94h137.38v-6.94h-33.12c-16.52,0-29.74-13.7-29.15-30.21l11.07-308.63,19.46,42.83h0s124.1,273.01,124.1,273.01l4.51,9.93,3.81,8.39.15.33,8.88-19.53-.25-.11,40.57-89.25-.25-.11,105.36-231.79,5.8,161.67.26,7.15.43,11.51c9.87-6.26,21.22-12.22,34.09-17.91l-.15-4.11-7.1-198.03h167.17c16.11,0,29.17,13.06,29.17,29.17v36.05h6.94v-72.16h-289.47Z"/>
      </g>
      <path class="cls-12" d="M656.45,303.96c-.69,42.92-8.81,80.35-28.55,99.57l.26,7.38c24.46-20.02,33.2-62.19,33.57-108.77-1.69.57-3.46,1.18-5.28,1.82Z"/>
      <path class="cls-8" d="M632.87,143.3c12.36,40.57,22.06,93.9,23.45,142.74,1.79-.6,3.52-1.18,5.15-1.72-1.83-53.32-13.03-109.31-23.19-142.67-6.88-22.59-16.86-48.91-27-48.91v5.66c2.25,0,10.22,7.57,21.58,44.89Z"/>
      <path class="cls-11" d="M732.38,271.1c-26.36,5.95-49.9,12.32-70.71,19.13-1.78.59-3.24,1.06-5.19,1.73-51.41,17.39-85.35,37.63-102.96,61.25-14.49,19.43-13.94,44.2,1.33,60.25,6.33,6.65,15.98,11.97,27.93,13.02l-.21-5.57c-9.96-1.03-18.04-5.5-23.62-11.36-13.33-14.01-13.7-35.79-.9-52.96,16.76-22.47,49.21-41.87,98.46-58.7,1.31-.45,4-1.34,5.24-1.76,21.01-6.93,44.94-13.43,71.87-19.51l-1.25-5.52Z"/>
      <path class="cls-2" d="M762.68,249.82c-9.76,0-17.67,7.91-17.67,17.67s7.91,17.67,17.67,17.67,17.67-7.91,17.67-17.67-7.91-17.67-17.67-17.67ZM762.68,279.5c-6.63,0-12.01-5.38-12.01-12.01s5.38-12.01,12.01-12.01,12.01,5.38,12.01,12.01-5.38,12.01-12.01,12.01Z"/>
    </g>
  </g>
  <text class="cls-3" transform="translate(80.46 907.74)"><tspan class="cls-7" x="0" y="0">C</tspan><tspan class="cls-13" x="56.17" y="0">L</tspan><tspan class="cls-22" x="103.77" y="0">Í</tspan><tspan class="cls-16" x="130.7" y="0">N</tspan><tspan class="cls-5" x="193.42" y="0">I</tspan><tspan class="cls-15" x="220.85" y="0">C</tspan><tspan class="cls-14" x="279.26" y="0">A </tspan><tspan class="cls-19" x="365.32" y="0">D</tspan><tspan class="cls-17" x="429.62" y="0">E </tspan><tspan class="cls-10" x="511.24" y="0">P</tspan><tspan class="cls-18" x="566.96" y="0">E</tspan><tspan class="cls-4" x="618.8" y="0">R</tspan><tspan class="cls-20" x="675.74" y="0">Í</tspan><tspan class="cls-6" x="702.75" y="0">C</tspan><tspan class="cls-21" x="758.89" y="0">I</tspan><tspan class="cls-14" x="786.55" y="0">A</tspan></text>
</svg>