<?xml version="1.0" encoding="UTF-8"?>
<svg id="Camada_1" xmlns="http://www.w3.org/2000/svg" version="1.1" xmlns:xlink="http://www.w3.org/1999/xlink" viewBox="0 0 1000 400">
  <!-- Generator: Adobe Illustrator 29.8.1, SVG Export Plug-In . SVG Version: 2.1.1 Build 2)  -->
  <defs>
    <style>
      .st0 {
        letter-spacing: 0em;
      }

      .st0, .st1, .st2, .st3, .st4, .st5, .st6, .st7 {
        isolation: isolate;
      }

      .st0, .st1, .st3, .st4, .st5, .st6, .st8, .st7 {
        fill: #e2cfb0;
      }

      .st0, .st1, .st3, .st4, .st5, .st6, .st7 {
        font-family: Montserrat-Medium, Montserrat;
        font-size: 41.7px;
        font-weight: 500;
      }

      .st9 {
        fill: url(#Gradiente_sem_nome_5);
      }

      .st10 {
        fill: url(#Gradiente_sem_nome_2);
      }

      .st1 {
        letter-spacing: .1em;
      }

      .st11 {
        fill: url(#Gradiente_sem_nome);
      }

      .st3 {
        letter-spacing: 0em;
      }

      .st12 {
        fill: url(#Gradiente_sem_nome_4);
      }

      .st4 {
        letter-spacing: 0em;
      }

      .st5 {
        letter-spacing: 0em;
      }

      .st6 {
        letter-spacing: 0em;
      }

      .st13 {
        fill: url(#Gradiente_sem_nome_3);
      }

      .st7 {
        letter-spacing: 0em;
      }

      .st14 {
        fill: #f7f5f2;
      }
    </style>
    <linearGradient id="Gradiente_sem_nome" data-name="Gradiente sem nome" x1="216.8" y1="135.5" x2="297.1" y2="135.5" gradientTransform="translate(0 402) scale(1 -1)" gradientUnits="userSpaceOnUse">
      <stop offset="0" stop-color="#c09d5d"/>
      <stop offset="1" stop-color="#e2cfb0"/>
    </linearGradient>
    <linearGradient id="Gradiente_sem_nome_2" data-name="Gradiente sem nome 2" x1="10" y1="202" x2="377.8" y2="202" gradientTransform="translate(0 402) scale(1 -1)" gradientUnits="userSpaceOnUse">
      <stop offset="0" stop-color="#c09d5d"/>
      <stop offset="1" stop-color="#e2cfb0"/>
    </linearGradient>
    <linearGradient id="Gradiente_sem_nome_3" data-name="Gradiente sem nome 3" x1="268.7" y1="163.6" x2="288.5" y2="163.6" gradientTransform="translate(0 402) scale(1 -1)" gradientUnits="userSpaceOnUse">
      <stop offset="0" stop-color="#c09d5d"/>
      <stop offset="1" stop-color="#d7be96"/>
    </linearGradient>
    <linearGradient id="Gradiente_sem_nome_4" data-name="Gradiente sem nome 4" x1="273.6" y1="204.8" x2="273.6" y2="317.8" gradientTransform="translate(0 402) scale(1 -1)" gradientUnits="userSpaceOnUse">
      <stop offset="0" stop-color="#c09d5d"/>
      <stop offset="1" stop-color="#d7be96"/>
    </linearGradient>
    <linearGradient id="Gradiente_sem_nome_5" data-name="Gradiente sem nome 5" x1="219.1" y1="168.1" x2="330.5" y2="168.1" gradientTransform="translate(0 402) scale(1 -1)" gradientUnits="userSpaceOnUse">
      <stop offset="0" stop-color="#c09d5d"/>
      <stop offset="1" stop-color="#d7be96"/>
    </linearGradient>
  </defs>
  <g>
    <path class="st14" d="M417,227.6v-76.6h9l34.4,57.9h-4.8l33.9-57.9h9v76.6c.1,0-10.4,0-10.4,0v-60.1c-.1,0,2.4,0,2.4,0l-30.2,50.8h-5l-30.4-50.8h2.7v60.1h-10.5Z"/>
    <path class="st14" d="M532.5,218.1h44.7v9.5h-55.6v-76.6h54.1v9.5h-43.1v57.6h0ZM531.5,184.1h39.4v9.3h-39.4v-9.3Z"/>
    <path class="st14" d="M594.9,227.6v-76.6h32.3c8.2,0,15.4,1.6,21.6,4.8s11.1,7.7,14.6,13.5,5.2,12.4,5.2,20-1.7,14.3-5.2,20c-3.5,5.8-8.3,10.2-14.6,13.5-6.2,3.2-13.5,4.8-21.6,4.8h-32.3ZM605.9,218.1h20.7c6.3,0,11.8-1.2,16.5-3.6,4.6-2.4,8.2-5.8,10.8-10.1,2.5-4.3,3.8-9.4,3.8-15.1s-1.3-10.8-3.8-15.1c-2.6-4.3-6.2-7.7-10.8-10.1s-10.1-3.6-16.5-3.6h-20.7v57.6h0Z"/>
    <path class="st14" d="M685.3,227.6v-76.6h11v76.6h-11Z"/>
    <path class="st14" d="M753.5,228.5c-5.8,0-11.2-1-16.2-2.9-4.9-1.9-9.2-4.7-12.8-8.2-3.6-3.5-6.4-7.7-8.5-12.4s-3.1-10-3.1-15.7,1-10.9,3.1-15.7c2-4.7,4.9-8.9,8.5-12.4,3.7-3.5,7.9-6.3,12.9-8.2,4.9-1.9,10.3-2.9,16.2-2.9s11.4,1,16.4,3,9.2,5,12.8,8.9l-7.1,6.9c-2.9-3.1-6.2-5.4-9.8-6.8-3.7-1.5-7.5-2.2-11.7-2.2s-8.3.7-12,2.2-6.9,3.5-9.6,6.1-4.8,5.8-6.3,9.4c-1.5,3.6-2.2,7.5-2.2,11.8s.8,8.1,2.2,11.8c1.5,3.6,3.6,6.7,6.3,9.4,2.7,2.6,5.9,4.7,9.6,6.1,3.7,1.5,7.7,2.2,12,2.2s8.1-.8,11.7-2.2c3.7-1.5,6.9-3.8,9.8-6.9l7.1,6.9c-3.5,3.9-7.8,6.9-12.8,9-5,2-10.5,3.1-16.5,3.1h0Z"/>
    <path class="st14" d="M798.4,227.6v-76.6h11v76.6h-11Z"/>
    <path class="st14" d="M832.4,227.6v-76.6h9l50.7,62.9h-4.7v-62.9h11v76.6h-9l-50.7-62.9h4.7v62.9h-11Z"/>
    <path class="st14" d="M909.7,227.6l34.7-76.6h10.8l34.8,76.6h-11.5l-31-70.5h4.4l-31,70.5h-11.3ZM924.4,208.5l3-8.8h43.1l3.2,8.8h-49.3Z"/>
  </g>
  <g>
    <path class="st14" d="M425.2,305.2h-8.2v-57.5h40.6v7.1h-32.4v50.3ZM424.4,274.9h29.6v7.1h-29.6v-7.1h0Z"/>
    <path class="st14" d="M494.5,305.9c-4.4,0-8.4-.7-12.2-2.2s-7-3.5-9.7-6.2c-2.7-2.6-4.9-5.8-6.4-9.3s-2.3-7.4-2.3-11.7.8-8.1,2.3-11.7,3.7-6.7,6.4-9.3c2.7-2.6,6-4.7,9.7-6.2s7.8-2.2,12.2-2.2,8.4.7,12.1,2.2,6.9,3.5,9.7,6.2c2.7,2.7,4.9,5.8,6.4,9.4,1.5,3.6,2.3,7.5,2.3,11.7s-.8,8.2-2.3,11.7-3.6,6.7-6.4,9.3c-2.7,2.7-6,4.7-9.7,6.2s-7.8,2.2-12.1,2.2h0ZM494.4,298.6c3.2,0,6.2-.5,8.9-1.6s5.1-2.6,7.1-4.6c2-2,3.6-4.3,4.7-7s1.7-5.6,1.7-8.8-.6-6.1-1.7-8.7-2.7-5-4.7-7c-2-2-4.4-3.6-7.1-4.7-2.7-1.1-5.7-1.6-8.9-1.6s-6.1.6-8.8,1.6c-2.7,1.1-5.1,2.7-7.1,4.7-2,2-3.6,4.4-4.7,7s-1.7,5.6-1.7,8.7.6,6.1,1.7,8.8,2.7,5,4.7,7,4.4,3.5,7.1,4.6,5.6,1.6,8.8,1.6h0Z"/>
    <path class="st14" d="M537.5,305.2v-57.5h22.4c5,0,9.3.8,12.9,2.4,3.6,1.6,6.3,3.9,8.2,6.9,1.9,3,2.9,6.6,2.9,10.8s-1,7.7-2.9,10.7c-1.9,3-4.7,5.3-8.2,6.9s-7.8,2.4-12.9,2.4h-17.9l3.7-3.8v21.3h-8.2,0ZM545.7,284.8l-3.7-4h17.7c5.3,0,9.2-1.1,12-3.4,2.7-2.3,4.1-5.5,4.1-9.6s-1.3-7.3-4.1-9.5-6.7-3.4-12-3.4h-17.7l3.7-4.1v34h0ZM575.9,305.2l-14.6-20.9h8.8l14.8,20.9h-9Z"/>
    <path class="st14" d="M607.8,305.2v-50.3h-19.7v-7.1h47.5v7.1h-19.7v50.3h-8.1,0Z"/>
    <path class="st14" d="M633,305.2l26-57.5h8.1l26.1,57.5h-8.6l-23.2-52.9h3.3l-23.2,52.9h-8.5ZM644,290.9l2.2-6.6h32.3l2.4,6.6h-37,0Z"/>
    <path class="st14" d="M701.8,305.2v-57.5h8.2v50.3h31.1v7.1h-39.3Z"/>
    <path class="st14" d="M758.7,298.1h33.5v7.1h-41.7v-57.5h40.6v7.1h-32.3v43.2ZM758,272.6h29.6v7h-29.6v-7Z"/>
    <path class="st14" d="M800.5,305.2v-5.6l38.7-47.9.9,3.2h-39v-7.1h46.4v5.6l-38.5,48-1-3.2h40.6v7.1h-48,0Z"/>
    <path class="st14" d="M850.8,305.2l26-57.5h8.1l26.1,57.5h-8.6l-23.2-52.9h3.3l-23.2,52.9h-8.5ZM861.9,290.9l2.2-6.6h32.3l2.4,6.6h-37,0Z"/>
  </g>
  <g>
    <g>
      <path class="st11" d="M266.5,296.1l-2.9-79.7c-7.7,3.6-14.4,7.5-19.9,11.5l2.5,68.3c.3,8.9-6.8,16.4-15.8,16.4h-13.7v4.1h80.3v-4.1h-13.6c-9.2,0-16.7-7.3-17-16.4Z"/>
      <path class="st10" d="M208.6,83.4v4.1h13.6c8.5,0,15.6,6.2,16.8,14.4l-81,178.2-2.9-6.3L70.4,87.5l-1.8-4.1H18.2v4.1h19.4c9.7,0,17.4,8,17,17.7l-6.8,190.9c-.3,9.2-7.9,16.4-17,16.4H10v4.1h80.3v-4.1h-19.4c-9.7,0-17.4-8-17-17.7l6.5-180.4,11.4,25h0l72.6,159.6,2.6,5.8,2.2,4.9v.2c0,0,5.3-11.4,5.3-11.4h-.1c0,0,23.7-52.2,23.7-52.2h-.1c0,0,61.6-135.6,61.6-135.6l3.4,94.5v4.2c.1,0,.4,6.7.4,6.7,5.8-3.7,12.4-7.1,19.9-10.5v-2.4c0,0-4.2-115.8-4.2-115.8h97.7c9.4,0,17,7.6,17,17.1v21.1h4.1v-42.2h-169.2Z"/>
    </g>
    <path class="st13" d="M285.4,207.7c-.4,25.1-5.1,47-16.7,58.2v4.3c14.4-11.7,19.6-36.4,19.8-63.6-1,.3-2,.7-3.1,1.1h0Z"/>
    <path class="st12" d="M271.6,113.7c7.2,23.7,12.9,54.9,13.7,83.4,1-.4,2.1-.7,3-1-1.1-31.2-7.6-63.9-13.6-83.4-4-13.2-9.9-28.6-15.8-28.6v3.3c1.3,0,6,4.4,12.6,26.2h0Z"/>
    <path class="st9" d="M329.8,188.4c-15.4,3.5-29.2,7.2-41.3,11.2-1,.3-1.9.6-3,1-30.1,10.2-49.9,22-60.2,35.8-8.5,11.4-8.1,25.8.8,35.2,3.7,3.9,9.3,7,16.3,7.6v-3.2c-5.9-.6-10.7-3.2-13.9-6.6-7.8-8.2-8-20.9-.5-31,9.8-13.1,28.8-24.5,57.6-34.3.8-.3,2.3-.8,3.1-1,12.3-4.1,26.3-7.9,42-11.4l-.7-3.2h0Z"/>
    <path class="st8" d="M347.5,176c-5.7,0-10.3,4.6-10.3,10.3s4.6,10.3,10.3,10.3,10.3-4.6,10.3-10.3-4.6-10.3-10.3-10.3ZM347.5,193.4c-3.9,0-7-3.1-7-7s3.1-7,7-7,7,3.1,7,7-3.1,7-7,7Z"/>
  </g>
  <g class="st2">
    <text class="st4" transform="translate(415.1 130.7)"><tspan x="0" y="0">C</tspan></text>
    <text class="st0" transform="translate(448.2 130.7)"><tspan x="0" y="0">L</tspan></text>
    <text class="st7" transform="translate(476.3 130.7)"><tspan x="0" y="0">Í</tspan></text>
    <text class="st4" transform="translate(492.4 130.7)"><tspan x="0" y="0">N</tspan></text>
    <text class="st7" transform="translate(529.2 130.7)"><tspan x="0" y="0">I</tspan></text>
    <text class="st1" transform="translate(545.6 130.7)"><tspan x="0" y="0">C</tspan></text>
    <text class="st3" transform="translate(579.9 130.7)"><tspan x="0" y="0">A </tspan></text>
    <text class="st0" transform="translate(630 130.7)"><tspan x="0" y="0">D</tspan></text>
    <text class="st1" transform="translate(667.8 130.7)"><tspan x="0" y="0">E </tspan></text>
    <text class="st4" transform="translate(715.2 130.7)"><tspan x="0" y="0">P</tspan></text>
    <text class="st5" transform="translate(748 130.7)"><tspan x="0" y="0">E</tspan></text>
    <text class="st0" transform="translate(778.6 130.7)"><tspan x="0" y="0">R</tspan></text>
    <text class="st7" transform="translate(812.1 130.7)"><tspan x="0" y="0">Í</tspan></text>
    <text class="st4" transform="translate(828.3 130.7)"><tspan x="0" y="0">C</tspan></text>
    <text class="st6" transform="translate(861.3 130.7)"><tspan x="0" y="0">I</tspan></text>
    <text class="st3" transform="translate(877.8 130.7)"><tspan x="0" y="0">A</tspan></text>
  </g>
</svg>